<svg width="38" height="38" viewBox="0 0 38 38" fill="none" xmlns="http://www.w3.org/2000/svg">
<g clip-path="url(#clip0_38_404)">
<rect width="38" height="38" rx="6" fill="#A8BD27" fill-opacity="0.25"/>
<path d="M10.793 27.8635C10.7939 27.8635 10.7947 27.8639 10.7953 27.8645C10.8006 27.8697 10.806 27.8749 10.8114 27.8802C10.8372 27.9049 10.8797 27.9008 10.9002 27.8715L11.6534 26.7956C11.6849 26.7506 11.7133 26.7033 11.7378 26.6541C12.4067 25.3071 12.6683 24.0771 12.6761 23.0275C12.6655 22.4558 12.5857 21.8894 12.4423 21.339C12.3412 21.0077 12.2668 20.6657 12.219 20.3211C12.219 20.3184 12.219 20.3131 12.219 20.3077C12.1871 20.0779 12.1658 19.8428 12.1552 19.6077C12.0093 15.8252 14.9286 12.5833 18.6781 12.3602C18.6847 12.3598 18.6877 12.3516 18.6828 12.3471V12.3471C18.6778 12.3426 18.6805 12.3345 18.6872 12.3341C19.5823 12.2816 20.8774 12.4749 21.9652 12.1882C23.1002 11.8649 24.1314 11.237 24.95 10.3714V10.3714C25.0286 10.2871 25.1167 10.2108 25.1829 10.1166L25.2032 10.0876C25.5621 9.57633 25.4395 8.86574 24.8959 8.55818C21.8118 6.81332 17.9937 6.44856 14.4622 7.89997C8.32792 10.4168 5.38837 17.4596 7.8947 23.626C8.52196 25.1678 9.42826 26.5089 10.5339 27.6124C10.6187 27.6976 10.7034 27.78 10.7908 27.8626C10.7914 27.8632 10.7922 27.8635 10.793 27.8635V27.8635Z" fill="#D7FF36"/>
<path d="M24.5858 10.0288C24.6423 9.96826 24.6777 9.93349 24.7031 9.90855C24.735 9.87723 24.7511 9.86139 24.7736 9.8293L24.794 9.8003C25.0019 9.50412 24.9088 9.13993 24.6497 8.99336C21.6932 7.32066 18.0356 6.97192 14.6523 8.36244L14.652 8.36255C8.77453 10.774 5.95459 17.5246 8.35784 23.4376L24.5858 10.0288ZM24.5858 10.0288C23.8295 10.8282 22.8784 11.4072 21.8331 11.7059C21.3575 11.8305 20.8186 11.8548 20.2591 11.849C20.0883 11.8472 19.9098 11.8422 19.7305 11.8373C19.3545 11.8268 18.9754 11.8163 18.6579 11.8349C18.5949 11.8386 18.5376 11.8518 18.4865 11.8725C14.5406 12.1942 11.5014 15.6304 11.6556 19.627L11.6557 19.6303C11.6665 19.8685 11.6875 20.1072 11.719 20.3417V20.3556L11.7237 20.3898C11.7746 20.7561 11.8535 21.1205 11.9609 21.4747C12.0926 21.9827 12.1658 22.5045 12.1761 23.0303C12.1679 23.9972 11.9262 25.1506 11.29 26.4317C11.2774 26.4569 11.262 26.4828 11.2438 26.5089L10.7886 27.159C9.77454 26.1216 8.94098 24.8708 8.35791 23.4378L24.5858 10.0288ZM18.1856 12.4073C18.1847 12.3989 18.1841 12.3905 18.1837 12.3822C18.1844 12.3905 18.1852 12.3989 18.1863 12.4072C18.1861 12.4073 18.1858 12.4073 18.1856 12.4073Z" stroke="black" stroke-opacity="0.15" stroke-miterlimit="10"/>
<path d="M26.4996 11.1287C26.4443 11.2076 26.4061 11.2967 26.3627 11.3827C26.357 11.394 26.351 11.4051 26.3445 11.416C25.6189 12.7813 25.3106 14.8439 25.3769 15.6588V15.6588C25.5534 17.8521 26.037 20.1478 25.0835 22.1308C24.0163 24.3504 21.814 25.9403 19.2215 26.0864C19.2162 26.0867 19.2108 26.0868 19.2055 26.0868V26.0868C18.3842 26.1402 18.2886 26.06 17.5364 26.0948C16.0118 26.163 14.3872 26.7931 13.2418 27.9701C13.2005 28.0126 13.1632 28.0588 13.1292 28.1074L12.8667 28.4826C12.6174 28.8392 12.7113 29.3295 13.0819 29.5574V29.5574C13.1855 29.6162 13.2892 29.6723 13.3929 29.7284C16.4254 31.3368 20.1171 31.6333 23.5377 30.228C29.672 27.7085 32.6115 20.6657 30.1052 14.4992C29.57 13.1835 28.8292 12.0126 27.9359 11.0106C27.5392 10.5656 26.842 10.6406 26.4996 11.1287V11.1287Z" fill="#D7FF36"/>
<path d="M25.8753 15.6187L25.3769 15.6588L25.8753 15.6182C25.8476 15.2778 25.8985 14.6106 26.0538 13.843C26.2072 13.0848 26.4517 12.2828 26.7814 11.6593C26.7915 11.6418 26.8007 11.6246 26.8092 11.6078C26.8301 11.5663 26.8451 11.5355 26.8568 11.5114C26.8801 11.4637 26.8906 11.442 26.909 11.4158C27.0862 11.1632 27.4032 11.1644 27.5627 11.3433C28.4185 12.3032 29.1286 13.4254 29.642 14.6875C32.0453 20.6006 29.2255 27.3514 23.3478 29.7655L23.3477 29.7655C20.0711 31.1117 16.5355 30.8286 13.6289 29.2876C13.5286 29.2334 13.4331 29.1817 13.3384 29.1281C13.225 29.0541 13.1881 28.8956 13.2765 28.7692L13.5389 28.394C13.5598 28.3641 13.5803 28.3393 13.6002 28.3188C14.6463 27.2437 16.1454 26.6575 17.5588 26.5943L17.5595 26.5942C17.8871 26.5791 18.077 26.587 18.2783 26.5954C18.2936 26.5961 18.309 26.5967 18.3246 26.5974C18.5548 26.6068 18.8 26.6138 19.2256 26.5866C19.2335 26.5864 19.2415 26.5861 19.2496 26.5856C22.0338 26.4287 24.3924 24.722 25.5341 22.3475C26.0587 21.2565 26.1785 20.098 26.1539 18.9628C26.138 18.2303 26.0587 17.4659 25.9823 16.7299C25.9428 16.3491 25.9041 15.9759 25.8753 15.6187Z" stroke="black" stroke-opacity="0.15" stroke-miterlimit="10"/>
</g>
<defs>
<clipPath id="clip0_38_404">
<rect width="38" height="38" fill="white"/>
</clipPath>
</defs>
</svg>
