<svg width="24" height="29" viewBox="0 0 24 29" fill="none" xmlns="http://www.w3.org/2000/svg">
<path d="M0 0C7.92 0 15.84 0 24 0C24 5.3563 24 10.7126 24 16.2312C22.5808 16.2312 21.1616 16.2312 19.6994 16.2312C19.6536 13.3928 19.6079 10.5545 19.5607 7.63006C18.6814 8.34949 17.8342 9.05343 16.9986 9.81503C16.5117 10.2478 16.0049 10.654 15.4986 11.0636C15.1323 11.3667 14.7791 11.6798 14.4277 12C13.9672 12.4194 13.4986 12.822 13.0145 13.2139C12.2138 13.8623 11.4372 14.5364 10.6604 15.213C10.229 15.5886 9.79506 15.9612 9.35983 16.3324C9.0399 16.6055 8.72097 16.8798 8.40228 17.1543C8.20184 17.3265 8.00053 17.4978 7.79913 17.6689C5.6825 19.5079 4.86032 21.2013 4.30058 24C9.3822 24 14.4638 24 19.6994 24C19.6994 22.7639 19.6994 21.5279 19.6994 20.2543C21.0728 20.2543 22.4462 20.2543 23.8613 20.2543C23.8613 22.9096 23.8613 25.5649 23.8613 28.3006C15.9871 28.3006 8.11283 28.3006 0 28.3006C0 21.2843 0 21.2843 1.09249 19.3439C1.16506 19.2076 1.16506 19.2076 1.23911 19.0685C2.43052 16.8653 4.0489 15.0586 5.99458 13.4962C6.36535 13.1924 6.72116 12.878 7.07514 12.5549C7.67166 12.0112 8.29029 11.5017 8.91763 10.9942C9.2839 10.6911 9.63708 10.378 9.98844 10.0578C10.5707 9.52762 11.1728 9.02917 11.7849 8.53396C12.2803 8.12542 12.7647 7.70536 13.2486 7.28324C13.9799 6.64558 14.7186 6.02067 15.4731 5.4104C15.8675 5.09036 16.2572 4.76448 16.6474 4.43931C12.5272 4.39353 8.40694 4.34775 4.16185 4.30058C4.16185 5.53665 4.16185 6.77272 4.16185 8.04624C2.78844 8.04624 1.41503 8.04624 0 8.04624C0 5.39098 0 2.73572 0 0Z" fill="#0DBA8E"/>
</svg>
