<svg width="89" height="89" viewBox="0 0 89 89" fill="none" xmlns="http://www.w3.org/2000/svg">
<path d="M31.0936 49.0375C30.8904 48.3712 30.7406 47.6832 30.6441 46.9898V46.9897V46.9897V46.9897V46.9896V46.9896V46.9895V46.9895V46.9894V46.9894V46.9893V46.9893V46.9892V46.9892V46.9892V46.9891V46.9891V46.989V46.989V46.9889V46.9889V46.9888V46.9888V46.9887V46.9887V46.9886V46.9886V46.9885V46.9885V46.9885V46.9884V46.9884V46.9883V46.9883V46.9882V46.9882V46.9881V46.9881V46.988V46.988V46.9879V46.9879V46.9878V46.9878V46.9877V46.9877V46.9876V46.9876V46.9875V46.9875V46.9874V46.9874V46.9873V46.9873V46.9872V46.9872V46.9871V46.9871V46.987V46.987V46.9869V46.9869V46.9868V46.9868V46.9867V46.9867V46.9866V46.9866V46.9865V46.9865V46.9864V46.9864V46.9863V46.9863V46.9862V46.9862V46.9861V46.9861V46.986V46.986V46.9859V46.9859V46.9858V46.9858V46.9857V46.9857V46.9856V46.9856V46.9855V46.9854V46.9854V46.9853V46.9853V46.9852V46.9852V46.9851V46.9851V46.985V46.985V46.9849V46.9849V46.9848V46.9848V46.9847V46.9847V46.9846V46.9845V46.9845V46.9844V46.9844V46.9843V46.9843V46.9842V46.9842V46.9841V46.9841V46.984V46.984V46.9839V46.9838V46.9838V46.9837V46.9837V46.9836V46.9836V46.9835V46.9835V46.9834V46.9833V46.9833V46.9832V46.9832V46.9831V46.9831V46.983V46.983V46.9829V46.9828V46.9828V46.9827V46.9827V46.9826V46.9826V46.9825V46.9825V46.9824V46.9823V46.9823V46.9822V46.9822V46.9821V46.9821V46.982V46.982V46.9819V46.9818V46.9818V46.9817V46.9817V46.9816V46.9816V46.9815V46.9814V46.9814V46.9813V46.9813V46.9812V46.9812V46.9811V46.981V46.981V46.9809V46.9809V46.9808V46.9807V46.9807V46.9806V46.9806V46.9805V46.9805V46.9804V46.9803V46.9803V46.9802V46.9802V46.9801V46.9801V46.98V46.9799V46.9799V46.9798V46.9798V46.9797V46.9796V46.9796V46.9795V46.9795V46.9794V46.9793V46.9793V46.9792V46.9792V46.9791V46.9791V46.979V46.9789V46.9789V46.9788V46.9788V46.9787V46.9786V46.9786V46.9785V46.9785V46.9784V46.9783V46.9783V46.9782V46.9782V46.9781V46.978V46.978V46.9779V46.9779V46.9778V46.9777V46.9777V46.9776V46.9776V46.9775V46.9774V46.9774V46.9773V46.9773V46.9772V46.9771V46.9771V46.977V46.9769V46.9769V46.9768V46.9768V46.9767V46.9766V46.9766V46.9765V46.9765V46.9764V46.9763V46.9763V46.9762V46.9762V46.9761V46.976V46.976V46.9759V46.9759V46.9758V46.9757V46.9757V46.9756V46.9755V46.9755V46.9754V46.9754V46.9753V46.9752V46.9752V46.9751V46.9751V46.975V46.9749V46.9749V46.9748V46.9747V46.9747V46.9746V46.9746V46.9745V46.9744V46.9744V46.9743V46.9742V46.9742V46.9741V46.9741V46.974V46.9739V46.9739V46.9738V46.9737V46.9737V46.9736V46.9736V46.9735V46.9734V46.9734V46.9733V46.9732V46.9732V46.9731V46.9731V46.973V46.9729V46.9729V46.9728V46.9727V46.9727V46.9726V46.9726V46.9725V46.9724V46.9724V46.9723V46.9722V46.9722V46.9721V46.9721V46.972V46.9719V46.9719V46.9718V46.9717V46.9717V46.9716V46.9715V46.9715V46.9714V46.9714V46.9713V46.9712V46.9712V46.9711V46.971V46.971V46.9709V46.9709V46.9708V46.9707V46.9707V46.9706V46.9705V46.9705V46.9704V46.9703V46.9703V46.9702V46.9702V46.9701V46.97V46.97V46.9699V46.9698V46.9698V46.9697V46.9697V46.9696V46.9695V46.9695V46.9694V46.9693V46.9693V46.9692V46.9691V46.9691V46.969V46.969V46.9689V46.9688V46.9688V46.9687V46.9686V46.9686V46.9685V46.9684V46.9684V46.9683V46.9683V46.9682V46.9681V46.9681V46.968V46.9679V46.9679V46.9678V46.9677V46.9677V46.9676V46.9676V46.9675V46.9674H30.6447L30.6434 46.9581C30.5791 46.4946 30.5362 46.0204 30.5148 45.546C30.2201 37.9053 36.1273 31.3591 43.7055 30.9281L43.868 30.9188L43.8147 30.8706C44.3812 30.8449 45.0202 30.8628 45.7001 30.8819C46.068 30.8923 46.4479 30.9029 46.8348 30.9072C48.0015 30.9201 49.2249 30.8742 50.3437 30.5795L50.345 30.5791C52.6568 29.9205 54.757 28.6417 56.4243 26.8787L56.4246 26.8783C56.5014 26.7959 56.5889 26.7234 56.6818 26.661L56.6923 26.654L56.6996 26.6436L58.2615 24.4184L58.3007 24.3625L58.2447 24.3234C51.6882 19.752 43.0355 18.4977 35.0959 21.7608C22.6302 26.8754 16.657 41.187 21.75 53.7175L21.8131 53.6919L21.75 53.7175C23.0245 56.8501 24.8662 59.5755 27.1131 61.8181C27.2859 61.9918 27.4588 62.1599 27.637 62.3284L27.6567 62.347H27.6612C27.6772 62.3625 27.6934 62.3779 27.7092 62.3929L27.7097 62.3933C27.7327 62.4151 27.7549 62.4361 27.7756 62.4569L27.833 62.5145L27.8796 62.4479L29.5815 60.0169L29.5821 60.0173L29.5865 60.0086C31.002 57.2118 31.5543 54.6565 31.5705 52.4795L31.5705 52.4777C31.5488 51.3137 31.3864 50.1606 31.0943 49.0402L31.0944 49.0401L31.0936 49.0375Z" fill="#D7FF36" stroke="#C4FF96" stroke-width="0.136149" stroke-miterlimit="10"/>
<path d="M57.1723 37.5519C57.2634 38.6847 57.4589 39.6548 57.6386 40.5468C57.6774 40.7394 57.7155 40.9284 57.7517 41.1145C57.9554 42.1644 58.0976 43.126 57.9696 44.1652L57.9689 44.1651L57.9692 44.1752C58.1624 51.7561 52.2668 58.1942 44.7483 58.6103H44.7482H44.7482H44.7481H44.7481H44.748H44.7479H44.7479H44.7478H44.7478H44.7477H44.7477H44.7477H44.7476H44.7476H44.7476H44.7475H44.7475H44.7475H44.7474H44.7474H44.7474H44.7474H44.7473H44.7473H44.7473H44.7472H44.7472H44.7472H44.7471H44.7471H44.7471H44.747H44.747H44.747H44.7469H44.7469H44.7469H44.7468H44.7468H44.7468H44.7467H44.7467H44.7467H44.7466H44.7466H44.7466H44.7465H44.7465H44.7465H44.7464H44.7464H44.7464H44.7463H44.7463H44.7463H44.7462H44.7462H44.7462H44.7461H44.7461H44.7461H44.746H44.746H44.746H44.7459H44.7459H44.7459H44.7458H44.7458H44.7457H44.7457H44.7457H44.7456H44.7456H44.7456H44.7455H44.7455H44.7455H44.7454H44.7454H44.7453H44.7453H44.7453H44.7452H44.7452H44.7452H44.7451H44.7451H44.745H44.745H44.745H44.7449H44.7449H44.7449H44.7448H44.7448H44.7447H44.7447H44.7447H44.7446H44.7446H44.7445H44.7445H44.7445H44.7444H44.7444H44.7444H44.7443H44.7443H44.7442H44.7442H44.7442H44.7441H44.7441H44.744H44.744H44.744H44.7439H44.7439H44.7438H44.7438H44.7438H44.7437H44.7437H44.7436H44.7436H44.7436H44.7435H44.7435H44.7434H44.7434H44.7434H44.7433H44.7433H44.7432H44.7432H44.7432H44.7431H44.7431H44.743H44.743H44.743H44.7429H44.7429H44.7428H44.7428H44.7427H44.7427H44.7427H44.7426H44.7426H44.7425H44.7425H44.7425H44.7424H44.7424H44.7423H44.7423H44.7423H44.7422H44.7422H44.7421H44.7421H44.742H44.742H44.742H44.7419H44.7419H44.7418H44.7418H44.7418H44.7417H44.7417H44.7416H44.7416H44.7415H44.7415H44.7415H44.7414H44.7414H44.7413H44.7413H44.7413H44.7412H44.7412H44.7411H44.7411H44.741H44.741H44.741H44.7409H44.7409H44.7408H44.7408H44.7407H44.7407H44.7407H44.7406H44.7406H44.7405H44.7405H44.7405H44.7404H44.7404H44.7403H44.7403H44.7402H44.7402H44.7402H44.7401H44.7401H44.74H44.74H44.74H44.7399H44.7399H44.7398H44.7398H44.7397H44.7397H44.7397H44.7396H44.7396H44.7395H44.7395H44.7395H44.7394H44.7394H44.7393H44.7393H44.7392H44.7392H44.7392H44.7391H44.7391H44.739H44.739H44.739H44.7389H44.7389H44.7388H44.7388H44.7387H44.7387H44.7387H44.7386H44.7386H44.7385H44.7385H44.7385H44.7384H44.7384H44.7383H44.7383H44.7383H44.7382H44.7382H44.7381H44.7381H44.738H44.738H44.738H44.7379H44.7379H44.7378H44.7378H44.7378H44.7377H44.7377H44.7376H44.7376H44.7376H44.7375H44.7375H44.7374H44.7374H44.7374H44.7373H44.7373H44.7372H44.7372H44.7372H44.7371H44.7371H44.737H44.737H44.737H44.7369H44.7369H44.7369H44.7368H44.7368H44.7367H44.7367H44.7367H44.7366H44.7366H44.7365H44.7365H44.7365H44.7364H44.7364H44.7364H44.7363H44.7363H44.7362H44.7362H44.7362H44.7361H44.7361H44.7361H44.736H44.736H44.7359H44.7359H44.7359H44.7358H44.7358H44.7358H44.7357H44.7357H44.7356H44.7356H44.7356H44.7355H44.7355H44.7355H44.7354H44.7354H44.7354H44.7353H44.7353H44.7352H44.7352H44.7352H44.7351H44.7351H44.7351H44.735H44.735H44.735H44.7349H44.7349H44.7349H44.7348H44.7348H44.7348H44.7347H44.7347H44.7347H44.7346H44.7346H44.7346H44.7345H44.7345H44.7345H44.7344H44.7344H44.7344H44.7343H44.7343H44.7343H44.7342H44.7342H44.7342H44.7341H44.7341H44.7341H44.734V58.6101L44.7296 58.6104C43.9006 58.6642 43.4385 58.6507 42.9931 58.6325C42.9618 58.6312 42.9305 58.6299 42.8992 58.6286C42.4837 58.6112 42.0602 58.5935 41.3485 58.6264C38.1878 58.7679 34.8149 60.095 32.4745 62.5784L32.474 62.5779L32.4683 62.5861L30.9117 64.8114L30.8718 64.8685L30.9298 64.9071C31.378 65.2055 31.8312 65.4876 32.2891 65.7693L32.2912 65.7705C32.5017 65.89 32.7122 66.0038 32.922 66.1173L32.9226 66.1176L32.9231 66.1179C39.0856 69.3864 46.5878 69.989 53.5389 67.1332C66.0047 62.0132 71.9777 47.7015 66.8848 35.171L66.8217 35.1966L66.8848 35.171C65.4914 31.7453 63.4119 28.8025 60.8735 26.4461L60.8163 26.393L60.7714 26.4569L59.2903 28.5685L59.2845 28.5767L59.2814 28.5863C59.2442 28.6992 59.2027 28.8123 59.1423 28.9138L59.1422 28.9138L59.1407 28.9167C58.4013 30.3079 57.8758 32.0515 57.5519 33.6523C57.2282 35.2522 57.1043 36.7171 57.1723 37.5519ZM57.1723 37.5519L57.2401 37.5465M57.1723 37.5519C57.1723 37.552 57.1723 37.552 57.1723 37.552L57.2401 37.5465M57.2401 37.5465C57.1056 35.8951 57.7304 31.7153 59.2008 28.9486M57.2401 37.5465C57.3309 38.6748 57.5255 39.6404 57.7051 40.5322C57.9626 41.8099 58.1895 42.9363 58.0372 44.1735C58.2314 51.7913 52.3068 58.2612 44.7502 58.6783L59.2008 28.9486M59.2008 28.9486C59.2653 28.8403 59.3086 28.7213 59.346 28.6076L60.7877 26.5522M59.2008 28.9486L60.7877 26.5522M60.7877 26.5522C60.7854 26.5501 60.7831 26.548 60.7809 26.5459L60.8272 26.496L60.8829 26.5351L60.8775 26.5428L60.7877 26.5522Z" fill="#D7FF36" stroke="#C4FF96" stroke-width="0.136149" stroke-miterlimit="10"/>
<path opacity="0.2" d="M44.5 89C69.0767 89 89 69.0767 89 44.5C89 19.9233 69.0767 0 44.5 0C19.9233 0 0 19.9233 0 44.5C0 69.0767 19.9233 89 44.5 89Z" fill="#C9F617"/>
</svg>
