<?xml version="1.0" standalone="no"?>
<!DOCTYPE svg PUBLIC "-//W3C//DTD SVG 20010904//EN"
 "http://www.w3.org/TR/2001/REC-SVG-20010904/DTD/svg10.dtd">
<svg version="1.0" xmlns="http://www.w3.org/2000/svg"
 width="512.000000pt" height="512.000000pt" viewBox="0 0 512.000000 512.000000"
 preserveAspectRatio="xMidYMid meet">

<g transform="translate(0.000000,512.000000) scale(0.100000,-0.100000)"
fill="#000000" stroke="none">
<path d="M2425 3620 c-344 -54 -632 -256 -791 -554 -86 -161 -124 -316 -124
-501 0 -221 60 -417 183 -600 41 -61 144 -175 157 -175 17 0 95 137 124 218
28 78 31 98 30 202 0 77 -5 135 -17 176 -22 78 -22 229 -2 309 26 96 74 181
148 261 80 86 152 132 262 170 71 23 98 27 240 30 176 4 236 17 322 66 65 36
147 110 191 171 l32 46 -67 40 c-152 90 -325 140 -508 146 -66 2 -147 0 -180
-5z"/>
<path d="M3252 3292 c-43 -65 -69 -129 -91 -214 -33 -129 -35 -190 -11 -323
49 -267 -1 -456 -166 -623 -67 -67 -96 -89 -165 -121 -106 -49 -163 -61 -297
-61 -230 -1 -400 -74 -497 -214 -45 -66 -49 -61 80 -125 571 -282 1267 10
1471 616 123 365 34 784 -224 1056 -30 31 -58 57 -62 57 -5 0 -22 -21 -38 -48z"/>
</g>
</svg>
