<svg width="259" height="41" viewBox="0 0 259 41" fill="none" xmlns="http://www.w3.org/2000/svg">
<path d="M5.9035 32.1176C5.93528 32.1469 5.97106 32.1764 6.00282 32.2057L7.25808 30.5594C8.29885 28.6712 8.70406 26.9478 8.71595 25.4811C8.70004 24.6966 8.58085 23.9193 8.36639 23.164C8.21542 22.7094 8.10421 22.24 8.03268 21.767C8.03268 21.7634 8.03268 21.7561 8.03268 21.7487C7.98502 21.4334 7.95323 21.1107 7.93738 20.7881C7.71887 15.5889 12.0964 11.1341 17.7134 10.8408L17.6737 10.8078C19.0123 10.7308 20.9628 11.0021 22.5994 10.6062C24.2957 10.1625 25.8369 9.30085 27.0604 8.11287C27.12 8.05422 27.1875 8.00289 27.2589 7.95889L28.4109 6.45195C23.5885 3.36475 17.2247 2.51778 11.3854 4.72136C2.21713 8.17526 -2.17631 17.8402 1.56964 26.3025C2.50713 28.4182 3.86169 30.2587 5.5142 31.773C5.64132 31.8904 5.76846 32.0039 5.89954 32.1176H5.9035Z" fill="url(#paint0_linear_5_22)"/>
<path d="M8.14889 21.7583C8.2195 22.222 8.32877 22.682 8.47668 23.1274L8.47829 23.1322L8.47818 23.1322C8.69528 23.8968 8.81602 24.684 8.83213 25.4788L8.8322 25.4821H8.83215C8.82009 26.9698 8.40904 28.7121 7.35985 30.6155L7.3557 30.623L7.35049 30.6299L6.09523 32.2761L6.01788 32.3776L5.92407 32.2911C5.90962 32.2778 5.89401 32.2642 5.87689 32.2493L5.8762 32.2487C5.87065 32.2439 5.86493 32.2389 5.85914 32.2339H5.85614L5.82336 32.2054C5.69152 32.091 5.56355 31.9767 5.43557 31.8586C3.77179 30.3339 2.40761 28.4805 1.4634 26.3496L1.46338 26.3495C-2.31228 17.8201 2.12007 8.08767 11.3443 4.61263L8.14889 21.7583ZM8.14889 21.7583V21.7582V21.7582V21.7582V21.7581V21.7581V21.758V21.758V21.758V21.7579V21.7579V21.7578V21.7578V21.7578V21.7577V21.7577V21.7576V21.7576V21.7576V21.7575V21.7575V21.7574V21.7574V21.7574V21.7573V21.7573V21.7572V21.7572V21.7572V21.7571V21.7571V21.7571V21.757V21.757V21.7569V21.7569V21.7569V21.7568V21.7568V21.7567V21.7567V21.7567V21.7566V21.7566V21.7565V21.7565V21.7565V21.7564V21.7564V21.7563V21.7563V21.7562V21.7562V21.7562V21.7561V21.7561V21.756V21.756V21.756V21.7559V21.7559V21.7558V21.7558V21.7558V21.7557V21.7557V21.7556V21.7556V21.7556V21.7555V21.7555V21.7554V21.7554V21.7554V21.7553V21.7553V21.7552V21.7552V21.7551V21.7551V21.7551V21.755V21.755V21.7549V21.7549V21.7549V21.7548V21.7548V21.7547V21.7547V21.7547V21.7546V21.7546V21.7545V21.7545V21.7544V21.7544V21.7544V21.7543V21.7543V21.7542V21.7542V21.7542V21.7541V21.7541V21.754V21.754V21.7539V21.7539V21.7539V21.7538V21.7538V21.7537V21.7537V21.7537V21.7536V21.7536V21.7535V21.7535V21.7534V21.7534V21.7534V21.7533V21.7533V21.7532V21.7532V21.7531V21.7531V21.7531V21.753V21.753V21.7529V21.7529V21.7529V21.7528V21.7528V21.7527V21.7527V21.7526V21.7526V21.7526V21.7525V21.7525V21.7524V21.7524V21.7523V21.7523V21.7523V21.7522V21.7522V21.7521V21.7521V21.752V21.752V21.752V21.7519V21.7519V21.7518V21.7518V21.7517V21.7517V21.7517V21.7516V21.7516V21.7515V21.7515V21.7514V21.7514V21.7514V21.7513V21.7513V21.7512V21.7512V21.7512V21.7511V21.7511V21.751V21.751V21.7509V21.7509V21.7509V21.7508V21.7508V21.7507V21.7507V21.7506V21.7506V21.7505V21.7505V21.7505V21.7504V21.7504V21.7503V21.7503V21.7502V21.7502V21.7502V21.7501V21.7501V21.75V21.75V21.7499V21.7499V21.7499V21.7498V21.7498V21.7497V21.7497V21.7496V21.7496V21.7496V21.7495V21.7495V21.7494V21.7494V21.7493V21.7493V21.7493V21.7492V21.7492V21.7491V21.7491V21.749V21.749V21.749V21.7489V21.7489V21.7488V21.7488V21.7487V21.7487V21.74L8.14759 21.7313C8.10055 21.4201 8.06915 21.1015 8.05347 20.7828M8.14889 21.7583L8.05347 20.7828M8.05347 20.7828C7.83822 15.6557 12.1578 11.2473 17.7194 10.9568L18.0164 10.9413L17.9813 10.9122C18.3495 10.9041 18.754 10.9145 19.1823 10.9256C19.4542 10.9326 19.7357 10.9399 20.0236 10.9428C20.8852 10.9515 21.7938 10.9206 22.6267 10.7191L22.6267 10.7191L22.6288 10.7186C24.3439 10.27 25.903 9.39859 27.1414 8.19625L27.142 8.19569C27.1945 8.14396 27.2549 8.09787 27.3199 8.05781L27.3381 8.04653L27.3512 8.02947L28.5032 6.52253L28.5799 6.42218L28.4735 6.35408C23.6211 3.24761 17.219 2.39577 11.3444 4.61261L8.05347 20.7828Z" stroke="white" stroke-opacity="0.1" stroke-width="0.232421" stroke-miterlimit="10"/>
<path d="M29.2518 9.31541C29.2242 9.3924 29.1922 9.47305 29.1447 9.54638C28.0602 11.42 27.5994 14.2505 27.6986 15.3689C27.8615 17.2278 28.4773 18.4341 28.2865 19.8567C28.4297 25.0155 24.0601 29.3969 18.4867 29.6794C18.4867 29.6794 18.4788 29.6794 18.4748 29.6794C17.2473 29.7526 17.1044 29.6426 15.9802 29.6903C13.6603 29.7856 11.1855 30.6801 9.46946 32.3521L8.32144 33.8591C8.65118 34.0607 8.98483 34.2514 9.3225 34.4421C9.47739 34.5228 9.63232 34.5998 9.78726 34.6767C14.3198 36.884 19.8374 37.2909 24.9497 35.3624C34.118 31.9049 38.5114 22.2399 34.7655 13.7775C33.7406 11.464 32.2112 9.47671 30.3442 7.88544L29.2518 9.31541Z" fill="url(#paint1_linear_5_22)"/>
<path d="M29.1595 9.24486L29.1485 9.2592L27.6986 15.3689L27.5829 15.379C27.5829 15.379 27.5829 15.3791 27.5829 15.3791C27.6505 16.1513 27.7959 16.8136 27.9285 17.4178C27.9571 17.5478 27.985 17.6752 28.0115 17.8004C28.1615 18.51 28.2639 19.1508 28.1713 19.8412L28.1701 19.8505L28.1703 19.8599C28.3115 24.9466 24.0011 29.2821 18.4838 29.5632H18.4838H18.4837H18.4837H18.4837H18.4837H18.4836H18.4836H18.4836H18.4836H18.4835H18.4835H18.4835H18.4834H18.4834H18.4834H18.4834H18.4833H18.4833H18.4833H18.4833H18.4832H18.4832H18.4832H18.4832H18.4831H18.4831H18.4831H18.483H18.483H18.483H18.483H18.4829H18.4829H18.4829H18.4828H18.4828H18.4828H18.4828H18.4827H18.4827H18.4827H18.4826H18.4826H18.4826H18.4826H18.4825H18.4825H18.4825H18.4824H18.4824H18.4824H18.4824H18.4823H18.4823H18.4823H18.4822H18.4822H18.4822H18.4822H18.4821H18.4821H18.4821H18.482H18.482H18.482H18.482H18.4819H18.4819H18.4819H18.4818H18.4818H18.4818H18.4817H18.4817H18.4817H18.4817H18.4816H18.4816H18.4816H18.4815H18.4815H18.4815H18.4814H18.4814H18.4814H18.4814H18.4813H18.4813H18.4813H18.4812H18.4812H18.4812H18.4811H18.4811H18.4811H18.4811H18.481H18.481H18.481H18.4809H18.4809H18.4809H18.4808H18.4808H18.4808H18.4807H18.4807H18.4807H18.4807H18.4806H18.4806H18.4806H18.4805H18.4805H18.4805H18.4804H18.4804H18.4804H18.4803H18.4803H18.4803H18.4803H18.4802H18.4802H18.4802H18.4801H18.4801H18.4801H18.48H18.48H18.48H18.4799H18.4799H18.4799H18.4799H18.4798H18.4798H18.4798H18.4797H18.4797H18.4797H18.4796H18.4796H18.4796H18.4795H18.4795H18.4795H18.4795H18.4794H18.4794H18.4794H18.4793H18.4793H18.4793H18.4792H18.4792H18.4792H18.4791H18.4791H18.4791H18.479H18.479H18.479H18.479H18.4789H18.4789H18.4789H18.4788H18.4788H18.4788H18.4787H18.4787H18.4787H18.4786H18.4786H18.4786H18.4786H18.4785H18.4785H18.4785H18.4784H18.4784H18.4784H18.4783H18.4783H18.4783H18.4783H18.4782H18.4782H18.4782H18.4781H18.4781H18.4781H18.478H18.478H18.478H18.4779H18.4779H18.4779H18.4779H18.4778H18.4778H18.4778H18.4777H18.4777H18.4777H18.4776H18.4776H18.4776H18.4776H18.4775H18.4775H18.4775H18.4774H18.4774H18.4774H18.4774H18.4773H18.4773H18.4773H18.4772H18.4772H18.4772H18.4771H18.4771H18.4771H18.4771H18.477H18.477H18.477H18.4769H18.4769H18.4769H18.4769H18.4768H18.4768H18.4768H18.4767H18.4767H18.4767H18.4767H18.4766H18.4766H18.4766H18.4765H18.4765H18.4765H18.4765H18.4764H18.4764H18.4764H18.4764H18.4763H18.4763H18.4763H18.4762H18.4762H18.4762H18.4762H18.4761H18.4761H18.4761H18.4761H18.476H18.476H18.476H18.4759H18.4759H18.4759H18.4759H18.4758H18.4758H18.4758H18.4758H18.4757H18.4757H18.4757H18.4757H18.4756H18.4756H18.4756H18.4756H18.4755H18.4755H18.4755H18.4755H18.4754H18.4754H18.4754H18.4753H18.4753H18.4753H18.4753H18.4753H18.4752H18.4752H18.4752H18.4752H18.4751H18.4751H18.4751H18.4751H18.475H18.475H18.475H18.475H18.4749H18.4749H18.4749H18.4749H18.4748V29.563L18.4679 29.5634C17.859 29.5997 17.5203 29.5906 17.1931 29.5783C17.17 29.5774 17.147 29.5765 17.1239 29.5756C16.8171 29.5638 16.5027 29.5518 15.9753 29.5741C13.632 29.6705 11.1283 30.5736 9.38836 32.2689L9.38222 32.2749L9.37702 32.2817L8.229 33.7887L8.15098 33.8911L8.26083 33.9583C8.59238 34.161 8.92748 34.3525 9.26535 34.5433L9.26532 34.5434L9.26879 34.5452C9.42444 34.6263 9.57998 34.7035 9.73435 34.7802L9.73557 34.7808L9.73638 34.7812C14.2966 37.002 19.8474 37.4113 24.9907 35.4711C34.215 31.9925 38.6474 22.26 34.8717 13.7305L34.8717 13.7305C33.8394 11.4002 32.2991 9.39896 30.4196 7.79699L30.3263 7.71747L30.2519 7.81489L29.1595 9.24486Z" stroke="white" stroke-opacity="0.1" stroke-width="0.232421" stroke-miterlimit="10"/>
<mask id="mask0_5_22" style="mask-type:luminance" maskUnits="userSpaceOnUse" x="48" y="3" width="158" height="34">
<path d="M205.973 3.69363H48.6534V36.3901H205.973V3.69363Z" fill="white"/>
</mask>
<g mask="url(#mask0_5_22)">
<path d="M109.78 3.77235L108.076 8.93242H87.424V17.2333H105.403V22.3934H87.424V30.9188H108.076L109.78 36.0789H81.8922V8.93242H81.8896V3.77235H109.78Z" fill="white"/>
<path d="M121.85 3.7206H114.738L140.215 36.1332H147.348L134.608 19.9381L147.328 3.74532L140.215 3.75656L131.047 15.411L121.85 3.7206Z" fill="white"/>
<path d="M129.149 26.8731L125.587 22.3399L114.716 36.1581H121.85L129.149 26.8731Z" fill="white"/>
<path fill-rule="evenodd" clip-rule="evenodd" d="M81.8882 36.2061L56.3771 3.77971H49.5831V36.1926H55.0184V10.7079L75.0604 36.2061H81.8882Z" fill="white"/>
<path d="M181.832 12.8615C181.676 11.5185 180.988 10.4701 179.79 9.72497C178.582 8.97114 177.021 8.59857 175.106 8.59857C173.762 8.59857 172.604 8.78058 171.641 9.13578C170.679 9.4997 169.933 9.98485 169.422 10.6C168.912 11.2153 168.656 11.9171 168.636 12.7057C168.636 13.3642 168.813 13.936 169.157 14.4126C169.501 14.8977 169.961 15.305 170.561 15.6343C171.15 15.9722 171.807 16.2494 172.525 16.4747C173.251 16.7 173.978 16.8906 174.704 17.0466L178.052 17.7831C179.398 18.0603 180.704 18.433 181.95 18.9095C183.197 19.3774 184.326 19.9753 185.317 20.6944C186.31 21.4136 187.095 22.28 187.674 23.2939C188.253 24.3076 188.548 25.4946 188.548 26.8636C188.548 28.7093 188.018 30.3294 186.947 31.7331C185.877 33.1281 184.336 34.2198 182.313 35.0084C180.3 35.7883 177.866 36.1869 174.999 36.1869C172.23 36.1869 169.815 35.8055 167.782 35.0431C165.741 34.2894 164.149 33.1802 163.001 31.7244C161.852 30.2688 161.234 28.4925 161.145 26.4045H167.508C167.596 27.4961 167.989 28.406 168.656 29.1425C169.334 29.8703 170.217 30.4075 171.297 30.7714C172.388 31.1266 173.604 31.3087 174.95 31.3087C176.354 31.3087 177.591 31.1178 178.661 30.7452C179.721 30.3729 180.556 29.8531 181.155 29.1772C181.764 28.51 182.068 27.7213 182.078 26.8202C182.068 25.9972 181.793 25.3126 181.263 24.7754C180.723 24.2382 179.977 23.7877 179.024 23.4238C178.063 23.0599 176.943 22.7306 175.666 22.4447L171.602 21.5262C168.666 20.859 166.339 19.8453 164.64 18.485C162.933 17.1246 162.087 15.3224 162.087 13.0609C162.087 11.2067 162.657 9.57778 163.806 8.18271C164.944 6.78773 166.506 5.70463 168.48 4.93344C170.463 4.15369 172.702 3.77235 175.195 3.77235C177.728 3.77235 179.947 4.15369 181.862 4.93344C183.776 5.70463 185.279 6.77907 186.368 8.14801C187.458 9.51703 188.028 11.0853 188.057 12.8615H181.832Z" fill="white"/>
</g>
<path d="M152.682 4.45372H157.239V35.6299H152.682V4.45372Z" fill="white"/>
<rect x="206.205" y="9.04185" width="52" height="22" rx="11" fill="#2F73F8"/>
<rect x="206.705" y="9.54185" width="51" height="21" rx="10.5" stroke="#00C2FF" stroke-opacity="0.15"/>
<path d="M220.262 24.5419V15.8146H223.313C223.921 15.8146 224.422 15.9197 224.817 16.1299C225.212 16.3373 225.506 16.6171 225.699 16.9694C225.893 17.3188 225.989 17.7066 225.989 18.1328C225.989 18.5078 225.922 18.8174 225.789 19.0617C225.658 19.3061 225.485 19.4992 225.269 19.6413C225.056 19.7833 224.824 19.8884 224.574 19.9566V20.0419C224.841 20.0589 225.11 20.1527 225.38 20.3231C225.65 20.4936 225.875 20.7379 226.057 21.0561C226.239 21.3742 226.33 21.7634 226.33 22.2237C226.33 22.6612 226.231 23.0546 226.032 23.4041C225.833 23.7535 225.519 24.0305 225.09 24.235C224.661 24.4396 224.103 24.5419 223.415 24.5419H220.262ZM221.319 23.6044H223.415C224.106 23.6044 224.596 23.4708 224.885 23.2038C225.178 22.9339 225.324 22.6072 225.324 22.2237C225.324 21.9282 225.249 21.6555 225.098 21.4055C224.948 21.1527 224.733 20.9509 224.455 20.8004C224.177 20.647 223.847 20.5703 223.466 20.5703H221.319V23.6044ZM221.319 19.6498H223.279C223.597 19.6498 223.884 19.5873 224.14 19.4623C224.398 19.3373 224.603 19.1612 224.753 18.9339C224.907 18.7066 224.983 18.4396 224.983 18.1328C224.983 17.7492 224.85 17.424 224.583 17.1569C224.316 16.887 223.893 16.7521 223.313 16.7521H221.319V19.6498ZM230.674 24.6782C230.044 24.6782 229.5 24.539 229.042 24.2606C228.588 23.9794 228.237 23.5873 227.99 23.0845C227.746 22.5788 227.623 21.9907 227.623 21.3203C227.623 20.6498 227.746 20.0589 227.99 19.5475C228.237 19.0333 228.581 18.6328 229.021 18.3458C229.464 18.0561 229.981 17.9112 230.572 17.9112C230.913 17.9112 231.25 17.968 231.582 18.0816C231.915 18.1953 232.217 18.3799 232.49 18.6356C232.763 18.8884 232.98 19.2237 233.142 19.6413C233.304 20.0589 233.385 20.5731 233.385 21.1839V21.61H228.339V20.7407H232.362C232.362 20.3714 232.288 20.0419 232.14 19.7521C231.996 19.4623 231.788 19.2336 231.518 19.066C231.251 18.8984 230.936 18.8146 230.572 18.8146C230.172 18.8146 229.825 18.914 229.532 19.1129C229.243 19.3089 229.02 19.5646 228.863 19.8799C228.707 20.1953 228.629 20.5333 228.629 20.8941V21.4737C228.629 21.968 228.714 22.387 228.885 22.7308C229.058 23.0717 229.298 23.3316 229.605 23.5106C229.912 23.6867 230.268 23.7748 230.674 23.7748C230.939 23.7748 231.177 23.7379 231.39 23.664C231.606 23.5873 231.792 23.4737 231.949 23.3231C232.105 23.1697 232.226 22.9794 232.311 22.7521L233.282 23.0248C233.18 23.3544 233.008 23.6441 232.767 23.8941C232.525 24.1413 232.227 24.3345 231.872 24.4737C231.517 24.61 231.118 24.6782 230.674 24.6782ZM237.761 17.9964V18.8487H234.369V17.9964H237.761ZM235.358 16.4282H236.363V22.6669C236.363 22.9509 236.405 23.164 236.487 23.3061C236.572 23.4453 236.68 23.539 236.811 23.5873C236.944 23.6328 237.085 23.6555 237.233 23.6555C237.344 23.6555 237.434 23.6498 237.505 23.6384C237.576 23.6242 237.633 23.6129 237.676 23.6044L237.88 24.5078C237.812 24.5333 237.717 24.5589 237.595 24.5845C237.473 24.6129 237.318 24.6271 237.13 24.6271C236.846 24.6271 236.568 24.566 236.295 24.4438C236.025 24.3217 235.801 24.1356 235.622 23.8856C235.446 23.6356 235.358 23.3203 235.358 22.9396V16.4282ZM241.2 24.6953C240.785 24.6953 240.409 24.6171 240.071 24.4609C239.733 24.3018 239.464 24.0731 239.265 23.7748C239.067 23.4737 238.967 23.11 238.967 22.6839C238.967 22.3089 239.041 22.0049 239.189 21.772C239.336 21.5362 239.534 21.3515 239.781 21.218C240.028 21.0845 240.301 20.985 240.599 20.9197C240.9 20.8515 241.203 20.7975 241.507 20.7578C241.905 20.7066 242.227 20.6683 242.474 20.6427C242.724 20.6143 242.906 20.5674 243.02 20.5021C243.136 20.4367 243.194 20.3231 243.194 20.1612V20.1271C243.194 19.7066 243.079 19.3799 242.849 19.147C242.622 18.914 242.277 18.7975 241.814 18.7975C241.334 18.7975 240.957 18.9027 240.684 19.1129C240.412 19.3231 240.22 19.5475 240.109 19.7862L239.155 19.4453C239.325 19.0475 239.552 18.7379 239.836 18.5163C240.123 18.2919 240.436 18.1356 240.774 18.0475C241.115 17.9566 241.45 17.9112 241.78 17.9112C241.99 17.9112 242.231 17.9367 242.504 17.9879C242.78 18.0362 243.045 18.137 243.301 18.2904C243.559 18.4438 243.774 18.6754 243.944 18.985C244.115 19.2947 244.2 19.7095 244.2 20.2294V24.5419H243.194V23.6555H243.143C243.075 23.7975 242.961 23.9495 242.802 24.1115C242.643 24.2734 242.432 24.4112 242.167 24.5248C241.903 24.6384 241.581 24.6953 241.2 24.6953ZM241.353 23.7919C241.751 23.7919 242.086 23.7137 242.359 23.5575C242.635 23.4012 242.842 23.1995 242.981 22.9524C243.123 22.7052 243.194 22.4453 243.194 22.1725V21.2521C243.152 21.3032 243.058 21.3501 242.913 21.3927C242.771 21.4325 242.606 21.468 242.419 21.4992C242.234 21.5277 242.054 21.5532 241.878 21.5759C241.704 21.5958 241.564 21.6129 241.456 21.6271C241.194 21.6612 240.95 21.7166 240.723 21.7933C240.498 21.8671 240.317 21.9794 240.177 22.1299C240.041 22.2777 239.973 22.4794 239.973 22.735C239.973 23.0845 240.102 23.3487 240.361 23.5277C240.622 23.7038 240.953 23.7919 241.353 23.7919Z" fill="white"/>
<defs>
<linearGradient id="paint0_linear_5_22" x1="14.3217" y1="3.48631" x2="14.3217" y2="32.2057" gradientUnits="userSpaceOnUse">
<stop stop-color="white"/>
<stop offset="1" stop-color="white" stop-opacity="0.8"/>
</linearGradient>
<linearGradient id="paint1_linear_5_22" x1="22.2121" y1="7.88544" x2="22.2121" y2="36.5975" gradientUnits="userSpaceOnUse">
<stop stop-color="white" stop-opacity="0.8"/>
<stop offset="1" stop-color="white"/>
</linearGradient>
</defs>
</svg>
